<mxfile host="app.diagrams.net" agent="Mozilla/5.0 (Windows NT 10.0; Win64; x64) AppleWebKit/537.36 (KHTML, like Gecko) Chrome/134.0.0.0 YaBrowser/25.4.0.0 Safari/537.36" version="27.0.5">
  <diagram name="Страница — 1" id="gXlUFRPgDd8LFlAcwiec">
    <mxGraphModel dx="1378" dy="796" grid="1" gridSize="10" guides="1" tooltips="1" connect="1" arrows="1" fold="1" page="1" pageScale="1" pageWidth="827" pageHeight="1169" math="0" shadow="0">
      <root>
        <mxCell id="0" />
        <mxCell id="1" parent="0" />
        <mxCell id="D2PztVkufLDwPUPrECTI-7" style="edgeStyle=orthogonalEdgeStyle;rounded=0;orthogonalLoop=1;jettySize=auto;html=1;exitX=0.75;exitY=1;exitDx=0;exitDy=0;entryX=0.5;entryY=0;entryDx=0;entryDy=0;" edge="1" parent="1" source="D2PztVkufLDwPUPrECTI-1" target="D2PztVkufLDwPUPrECTI-4">
          <mxGeometry relative="1" as="geometry" />
        </mxCell>
        <mxCell id="D2PztVkufLDwPUPrECTI-1" value="Модуль интерфейса пользователя" style="shape=module;align=left;spacingLeft=20;align=center;verticalAlign=top;whiteSpace=wrap;html=1;" vertex="1" parent="1">
          <mxGeometry x="70" y="20" width="140" height="50" as="geometry" />
        </mxCell>
        <mxCell id="D2PztVkufLDwPUPrECTI-8" style="edgeStyle=orthogonalEdgeStyle;rounded=0;orthogonalLoop=1;jettySize=auto;html=1;exitX=0.75;exitY=1;exitDx=0;exitDy=0;entryX=0.5;entryY=0;entryDx=0;entryDy=0;" edge="1" parent="1" source="D2PztVkufLDwPUPrECTI-4" target="D2PztVkufLDwPUPrECTI-5">
          <mxGeometry relative="1" as="geometry" />
        </mxCell>
        <mxCell id="D2PztVkufLDwPUPrECTI-19" style="edgeStyle=orthogonalEdgeStyle;rounded=0;orthogonalLoop=1;jettySize=auto;html=1;exitX=1;exitY=1;exitDx=0;exitDy=0;" edge="1" parent="1" source="D2PztVkufLDwPUPrECTI-4" target="D2PztVkufLDwPUPrECTI-18">
          <mxGeometry relative="1" as="geometry" />
        </mxCell>
        <mxCell id="D2PztVkufLDwPUPrECTI-4" value="Модуль обработки данных" style="shape=module;align=left;spacingLeft=20;align=center;verticalAlign=top;whiteSpace=wrap;html=1;" vertex="1" parent="1">
          <mxGeometry x="70" y="120" width="140" height="50" as="geometry" />
        </mxCell>
        <mxCell id="D2PztVkufLDwPUPrECTI-9" style="edgeStyle=orthogonalEdgeStyle;rounded=0;orthogonalLoop=1;jettySize=auto;html=1;exitX=0.75;exitY=1;exitDx=0;exitDy=0;entryX=0.5;entryY=0;entryDx=0;entryDy=0;" edge="1" parent="1" source="D2PztVkufLDwPUPrECTI-5" target="D2PztVkufLDwPUPrECTI-6">
          <mxGeometry relative="1" as="geometry" />
        </mxCell>
        <mxCell id="D2PztVkufLDwPUPrECTI-5" value="Модуль управления контентом (WorpdPress CMS)" style="shape=module;align=left;spacingLeft=20;align=center;verticalAlign=top;whiteSpace=wrap;html=1;" vertex="1" parent="1">
          <mxGeometry x="70" y="230" width="160" height="70" as="geometry" />
        </mxCell>
        <mxCell id="D2PztVkufLDwPUPrECTI-28" style="edgeStyle=orthogonalEdgeStyle;rounded=0;orthogonalLoop=1;jettySize=auto;html=1;exitX=0.5;exitY=1;exitDx=0;exitDy=0;" edge="1" parent="1" source="D2PztVkufLDwPUPrECTI-6" target="D2PztVkufLDwPUPrECTI-26">
          <mxGeometry relative="1" as="geometry" />
        </mxCell>
        <mxCell id="D2PztVkufLDwPUPrECTI-6" value="Модуль базы данных" style="shape=module;align=left;spacingLeft=20;align=center;verticalAlign=top;whiteSpace=wrap;html=1;" vertex="1" parent="1">
          <mxGeometry x="80" y="360" width="140" height="50" as="geometry" />
        </mxCell>
        <mxCell id="D2PztVkufLDwPUPrECTI-10" style="edgeStyle=orthogonalEdgeStyle;rounded=0;orthogonalLoop=1;jettySize=auto;html=1;exitX=0;exitY=0;exitDx=0;exitDy=15;exitPerimeter=0;entryX=0;entryY=0;entryDx=0;entryDy=15;entryPerimeter=0;" edge="1" parent="1" source="D2PztVkufLDwPUPrECTI-4" target="D2PztVkufLDwPUPrECTI-6">
          <mxGeometry relative="1" as="geometry" />
        </mxCell>
        <mxCell id="D2PztVkufLDwPUPrECTI-14" value="" style="shape=waypoint;sketch=0;fillStyle=solid;size=6;pointerEvents=1;points=[];fillColor=none;resizable=0;rotatable=0;perimeter=centerPerimeter;snapToPoint=1;" vertex="1" parent="1">
          <mxGeometry x="360" y="100" width="20" height="20" as="geometry" />
        </mxCell>
        <mxCell id="D2PztVkufLDwPUPrECTI-15" value="Клиент" style="text;html=1;align=center;verticalAlign=middle;resizable=0;points=[];autosize=1;strokeColor=none;fillColor=none;" vertex="1" parent="1">
          <mxGeometry x="340" y="110" width="60" height="30" as="geometry" />
        </mxCell>
        <mxCell id="D2PztVkufLDwPUPrECTI-16" style="edgeStyle=orthogonalEdgeStyle;rounded=0;orthogonalLoop=1;jettySize=auto;html=1;exitX=1;exitY=1;exitDx=0;exitDy=0;entryX=0.35;entryY=0.25;entryDx=0;entryDy=0;entryPerimeter=0;" edge="1" parent="1" source="D2PztVkufLDwPUPrECTI-1" target="D2PztVkufLDwPUPrECTI-14">
          <mxGeometry relative="1" as="geometry" />
        </mxCell>
        <mxCell id="D2PztVkufLDwPUPrECTI-17" value="Отображение страниц, форма заявки" style="text;html=1;align=center;verticalAlign=middle;resizable=0;points=[];autosize=1;strokeColor=none;fillColor=none;" vertex="1" parent="1">
          <mxGeometry x="230" y="40" width="230" height="30" as="geometry" />
        </mxCell>
        <mxCell id="D2PztVkufLDwPUPrECTI-18" value="" style="shape=waypoint;sketch=0;fillStyle=solid;size=6;pointerEvents=1;points=[];fillColor=none;resizable=0;rotatable=0;perimeter=centerPerimeter;snapToPoint=1;" vertex="1" parent="1">
          <mxGeometry x="360" y="210" width="20" height="20" as="geometry" />
        </mxCell>
        <mxCell id="D2PztVkufLDwPUPrECTI-20" value="WordPressCore" style="text;html=1;align=center;verticalAlign=middle;resizable=0;points=[];autosize=1;strokeColor=none;fillColor=none;" vertex="1" parent="1">
          <mxGeometry x="315" y="218" width="110" height="30" as="geometry" />
        </mxCell>
        <mxCell id="D2PztVkufLDwPUPrECTI-21" value="Обработка запросов, валидация" style="text;html=1;align=center;verticalAlign=middle;resizable=0;points=[];autosize=1;strokeColor=none;fillColor=none;" vertex="1" parent="1">
          <mxGeometry x="220" y="160" width="210" height="30" as="geometry" />
        </mxCell>
        <mxCell id="D2PztVkufLDwPUPrECTI-22" value="" style="shape=waypoint;sketch=0;fillStyle=solid;size=6;pointerEvents=1;points=[];fillColor=none;resizable=0;rotatable=0;perimeter=centerPerimeter;snapToPoint=1;" vertex="1" parent="1">
          <mxGeometry x="510" y="300" width="20" height="20" as="geometry" />
        </mxCell>
        <mxCell id="D2PztVkufLDwPUPrECTI-23" value="Администратор" style="text;html=1;align=center;verticalAlign=middle;resizable=0;points=[];autosize=1;strokeColor=none;fillColor=none;" vertex="1" parent="1">
          <mxGeometry x="460" y="320" width="110" height="30" as="geometry" />
        </mxCell>
        <mxCell id="D2PztVkufLDwPUPrECTI-24" style="edgeStyle=orthogonalEdgeStyle;rounded=0;orthogonalLoop=1;jettySize=auto;html=1;exitX=1;exitY=1;exitDx=0;exitDy=0;entryX=0.1;entryY=0.6;entryDx=0;entryDy=0;entryPerimeter=0;" edge="1" parent="1" source="D2PztVkufLDwPUPrECTI-5" target="D2PztVkufLDwPUPrECTI-22">
          <mxGeometry relative="1" as="geometry" />
        </mxCell>
        <mxCell id="D2PztVkufLDwPUPrECTI-25" value="Редактирование контента, просмотр заявок" style="text;html=1;align=center;verticalAlign=middle;resizable=0;points=[];autosize=1;strokeColor=none;fillColor=none;" vertex="1" parent="1">
          <mxGeometry x="235" y="270" width="270" height="30" as="geometry" />
        </mxCell>
        <mxCell id="D2PztVkufLDwPUPrECTI-26" value="" style="shape=waypoint;sketch=0;fillStyle=solid;size=6;pointerEvents=1;points=[];fillColor=none;resizable=0;rotatable=0;perimeter=centerPerimeter;snapToPoint=1;" vertex="1" parent="1">
          <mxGeometry x="140" y="520" width="20" height="20" as="geometry" />
        </mxCell>
        <mxCell id="D2PztVkufLDwPUPrECTI-27" value="MySQL" style="text;html=1;align=center;verticalAlign=middle;resizable=0;points=[];autosize=1;strokeColor=none;fillColor=none;" vertex="1" parent="1">
          <mxGeometry x="120" y="540" width="60" height="30" as="geometry" />
        </mxCell>
        <mxCell id="D2PztVkufLDwPUPrECTI-29" value="Хранение заявок" style="text;html=1;align=center;verticalAlign=middle;resizable=0;points=[];autosize=1;strokeColor=none;fillColor=none;" vertex="1" parent="1">
          <mxGeometry x="150" y="440" width="120" height="30" as="geometry" />
        </mxCell>
      </root>
    </mxGraphModel>
  </diagram>
</mxfile>
